<svg id="Layer_1" data-name="Layer 1" xmlns="http://www.w3.org/2000/svg" viewBox="0 0 100 100"><defs><style>.cls-1{fill:#555554;}</style></defs><title>icons</title><path class="cls-1" d="M58.15,63.18A33.64,33.64,0,0,1,55,61.78l-.92-.44c-.41-.2-.79-.41-1.22-.65-.2-.12-.41-.24-.66-.37a1.79,1.79,0,0,1,0-3.15l.25-.12a8.36,8.36,0,0,0,.24-10.66A3.77,3.77,0,0,0,49.94,45h0a3.85,3.85,0,0,0-2.82,1.36c-2.46,2.67-2.44,7.87,0,10.5a3.17,3.17,0,0,0,.27.2l.39.28a1.79,1.79,0,0,1,.69,1.53,1.76,1.76,0,0,1-.88,1.43l-.39.23a7.53,7.53,0,0,1-.73.41l-1.73.8c-1.18.54-2.39,1.09-3.53,1.69a4.42,4.42,0,0,0-1.48,1.13,8,8,0,0,0-1.51,4,9.4,9.4,0,0,0,1,.25,57.62,57.62,0,0,0,19.21.36c1.08-.16,2.13-.36,3.13-.59a15,15,0,0,0-.51-2.12A4.63,4.63,0,0,0,58.15,63.18Z"/><path class="cls-1" d="M31.29,45.69a1.78,1.78,0,0,1-.54-2.8l.14-.15a3.73,3.73,0,0,1,.32-.34c2.66-2.37,3-7.58.66-10.52A4,4,0,0,0,28.8,30.2h0a4,4,0,0,0-3.05,1.63,8.47,8.47,0,0,0,0,9.94c.16.2.36.41.59.65l.39.4a1.79,1.79,0,0,1-.38,2.74l-.21.13a6.16,6.16,0,0,1-.66.38c-.46.21-.91.44-1.37.66-1.18.58-2.4,1.17-3.67,1.68a4.56,4.56,0,0,0-2.73,3,18.25,18.25,0,0,0-.6,2.26v.08h.05a55,55,0,0,0,16.11,1l1.14-.11a15.12,15.12,0,0,1,0-7.47Z"/><path class="cls-1" d="M50,5.76A44.24,44.24,0,1,0,94.24,50,44.3,44.3,0,0,0,50,5.76ZM28.64,58.56a56.61,56.61,0,0,1-12.24-1.3C14,56.72,13.15,55.44,13.64,53a21.71,21.71,0,0,1,.72-2.72,8.14,8.14,0,0,1,4.77-5.17c1.15-.46,2.26-1,3.44-1.57l0,0A12,12,0,0,1,23,29.6a7.45,7.45,0,0,1,5.82-3h0a7.48,7.48,0,0,1,5.85,3A12.08,12.08,0,0,1,35,43.52l2.41,1.19a1.77,1.77,0,0,1,.89,2.19,11.71,11.71,0,0,0,.19,8.69,1.78,1.78,0,0,1-.12,1.59A1.81,1.81,0,0,1,37,58l-1.1.11c-.79.08-1.55.16-2.31.22C31.91,58.5,30.27,58.56,28.64,58.56ZM62.58,72c-1.16.28-2.37.51-3.61.7a62.81,62.81,0,0,1-9.07.67,60.87,60.87,0,0,1-11.33-1.06,15.11,15.11,0,0,1-2-.56,2.77,2.77,0,0,1-1.9-3A11.79,11.79,0,0,1,37,62.37a8.14,8.14,0,0,1,2.64-2.09c1.22-.64,2.47-1.21,3.68-1.77l.46-.2c-2.93-4.13-2.68-10.63.76-14.36A7.42,7.42,0,0,1,50,41.45,7.33,7.33,0,0,1,55.38,44c3.45,3.8,3.61,10.17.67,14.33l.5.24a30,30,0,0,0,2.83,1.26,8.26,8.26,0,0,1,5.07,5.53,21.37,21.37,0,0,1,.66,2.74A3,3,0,0,1,62.58,72ZM84.25,57.06a33.47,33.47,0,0,1-3.56.76,61,61,0,0,1-9.49.74,62.34,62.34,0,0,1-7.32-.43L63.25,58,62.94,58a1.77,1.77,0,0,1-1.36-2.43A11.19,11.19,0,0,0,61.67,47a1.77,1.77,0,0,1,.88-2.23L65,43.52c-3-4.16-2.71-10.7.82-14.45a7.33,7.33,0,0,1,5.36-2.44h.07a7.37,7.37,0,0,1,5.39,2.56c3.43,3.8,3.6,10.18.66,14.34l.4.19.12.06c1.11.52,2.16,1,3.24,1.45a7.35,7.35,0,0,1,4.32,4.53,27.91,27.91,0,0,1,1,3.62v.06A2.8,2.8,0,0,1,84.25,57.06Z"/><path class="cls-1" d="M79.77,48.54c-1.19-.47-2.34-1-3.45-1.54l-.13-.06c-.58-.28-1.15-.58-1.75-.89l-.86-.46a1.76,1.76,0,0,1-1-1.43,1.79,1.79,0,0,1,.71-1.58l.28-.2.09-.06A8.25,8.25,0,0,0,74,31.58a3.81,3.81,0,0,0-2.79-1.39h0a3.83,3.83,0,0,0-2.77,1.32,8.31,8.31,0,0,0,0,10.59l.24.17.43.31a1.78,1.78,0,0,1-.27,3l-3.35,1.65a14.59,14.59,0,0,1,.08,7.48,57.8,57.8,0,0,0,14.54-.43c1-.16,1.86-.34,2.69-.55A22.39,22.39,0,0,0,82.06,51,3.87,3.87,0,0,0,79.77,48.54Z"/></svg>